<svg width="25" height="25" viewBox="0 0 25 25" fill="none" xmlns="http://www.w3.org/2000/svg">
<g clip-path="url(#clip0_9_317)">
<path d="M3.33326 15.8331H4.58328V24.583C4.58328 25.9618 5.70456 27.083 7.08334 27.083H22.0837C23.4624 27.083 24.5837 25.9618 24.5837 24.583V15.8331H25.8337C26.0809 15.8331 26.3226 15.7597 26.5281 15.6224C26.7336 15.485 26.8938 15.2898 26.9884 15.0614C27.0829 14.8331 27.1077 14.5818 27.0595 14.3393C27.0113 14.0969 26.8923 13.8742 26.7175 13.6994L15.4673 2.44951C15.3513 2.33332 15.2135 2.24115 15.0619 2.17827C14.9102 2.11538 14.7477 2.08301 14.5835 2.08301C14.4193 2.08301 14.2568 2.11538 14.1051 2.17827C13.9535 2.24115 13.8157 2.33332 13.6997 2.44951L2.44949 13.6994C2.27472 13.8742 2.15571 14.0969 2.1075 14.3393C2.05929 14.5818 2.08404 14.8331 2.17863 15.0614C2.27322 15.2898 2.4334 15.485 2.63892 15.6224C2.84444 15.7597 3.08606 15.8331 3.33326 15.8331ZM12.0834 24.583V18.3331H17.0836V24.583H12.0834ZM14.5835 5.10073L22.0837 12.6007V18.3331L22.0849 24.583H19.5836V18.3331C19.5836 16.9544 18.4623 15.8331 17.0836 15.8331H12.0834C10.7047 15.8331 9.58339 16.9544 9.58339 18.3331V24.583H7.08334V12.6007L14.5835 5.10073Z" fill="#F16A26"/>
</g>
<defs>
<clipPath id="clip0_9_317">
<rect width="25" height="25" fill="white"/>
</clipPath>
</defs>
</svg>
